<?xml version="1.0" encoding="utf-8" standalone="no"?>
<!DOCTYPE svg PUBLIC "-//W3C//DTD SVG 1.1//EN"
  "http://www.w3.org/Graphics/SVG/1.1/DTD/svg11.dtd">
<svg xmlns:xlink="http://www.w3.org/1999/xlink" width="460.8pt" height="345.6pt" viewBox="0 0 460.8 345.6" xmlns="http://www.w3.org/2000/svg" version="1.1">
 <metadata>
  <rdf:RDF xmlns:dc="http://purl.org/dc/elements/1.1/" xmlns:cc="http://creativecommons.org/ns#" xmlns:rdf="http://www.w3.org/1999/02/22-rdf-syntax-ns#">
   <cc:Work>
    <dc:type rdf:resource="http://purl.org/dc/dcmitype/StillImage"/>
    <dc:date>2023-05-11T15:30:51.695584</dc:date>
    <dc:format>image/svg+xml</dc:format>
    <dc:creator>
     <cc:Agent>
      <dc:title>Matplotlib v3.7.1, https://matplotlib.org/</dc:title>
     </cc:Agent>
    </dc:creator>
   </cc:Work>
  </rdf:RDF>
 </metadata>
 <defs>
  <style type="text/css">*{stroke-linejoin: round; stroke-linecap: butt}</style>
 </defs>
 <g id="figure_1">
  <g id="patch_1">
   <path d="M 0 345.6 
L 460.8 345.6 
L 460.8 0 
L 0 0 
z
" style="fill: #ffffff"/>
  </g>
  <g id="axes_1">
   <g id="line2d_1">
    <path d="M 147.736897 162.848238 
L 160.2821 174.633491 
M 139.363652 176.843886 
L 160.2821 174.633491 
M 139.363652 176.843886 
L 142.17173 186.212927 
M 139.363652 176.843886 
L 147.736897 162.848238 
M 288.234042 206.039408 
L 292.054496 182.423577 
M 288.234042 206.039408 
L 324.830056 219.703465 
M 222.999395 121.428134 
L 216.195296 120.424102 
M 210.920381 192.436916 
L 194.475948 180.084271 
M 210.920381 192.436916 
L 220.943388 210.251561 
M 280.661546 169.051213 
L 292.054496 182.423577 
M 208.457117 295.488 
L 197.290664 279.847169 
M 208.457117 295.488 
L 378.305096 289.796944 
M 102.32726 123.835675 
L 97.079034 106.736477 
M 244.464813 127.044346 
L 244.157889 113.891151 
M 266.915946 238.827155 
L 260.346853 228.903683 
M 348.787859 264.045146 
L 371.042463 263.545973 
M 316.013862 178.041788 
L 292.054496 182.423577 
M 126.419886 195.237741 
L 142.17173 186.212927 
M 219.389955 107.953231 
L 216.195296 120.424102 
M 219.389955 107.953231 
L 222.999395 121.428134 
M 333.956422 169.176339 
L 316.013862 178.041788 
M 223.505109 107.149914 
L 244.157889 113.891151 
M 223.505109 107.149914 
L 222.999395 121.428134 
M 223.505109 107.149914 
L 219.389955 107.953231 
M 363.858194 132.194563 
L 386.286392 130.256091 
M 162.954591 180.481091 
L 160.2821 174.633491 
M 162.954591 180.481091 
L 173.537386 183.576819 
M 334.078221 121.932904 
L 295.415386 100.96107 
M 120.382234 136.115231 
L 131.337891 116.143824 
M 120.382234 136.115231 
L 102.32726 123.835675 
M 94.75783 209.259359 
L 89.453903 220.950181 
M 339.364125 192.133538 
L 324.830056 219.703465 
M 339.364125 192.133538 
L 351.065624 181.315269 
M 339.364125 192.133538 
L 316.013862 178.041788 
M 269.304104 119.285494 
L 244.157889 113.891151 
M 269.304104 119.285494 
L 244.464813 127.044346 
M 342.126739 111.44105 
L 295.415386 100.96107 
M 342.126739 111.44105 
L 334.078221 121.932904 
M 224.329454 282.377665 
L 236.824703 278.364591 
M 224.329454 282.377665 
L 197.290664 279.847169 
M 224.329454 282.377665 
L 208.457117 295.488 
M 250.088867 148.475131 
L 280.661546 169.051213 
M 250.088867 148.475131 
L 244.464813 127.044346 
M 250.088867 148.475131 
L 269.304104 119.285494 
M 344.503659 67.48485 
L 335.30132 68.13898 
M 145.689379 156.453976 
L 147.736897 162.848238 
M 127.743064 106.176069 
L 131.337891 116.143824 
M 353.886361 287.669381 
L 378.305096 289.796944 
M 247.19491 102.606796 
L 244.157889 113.891151 
M 127.604026 83.270881 
L 166.764764 75.295811 
M 127.604026 83.270881 
L 127.743064 106.176069 
M 217.221816 121.450435 
L 216.195296 120.424102 
M 217.221816 121.450435 
L 222.999395 121.428134 
M 350.060418 255.034279 
L 371.042463 263.545973 
M 350.060418 255.034279 
L 348.787859 264.045146 
M 350.060418 255.034279 
L 371.060256 247.940547 
M 290.724095 99.96786 
L 295.415386 100.96107 
M 290.724095 99.96786 
L 269.304104 119.285494 
M 252.81001 255.897101 
L 266.915946 238.827155 
M 83.664267 227.573857 
L 89.453903 220.950181 
M 337.732916 284.980024 
L 353.886361 287.669381 
M 74.679648 208.157141 
L 94.75783 209.259359 
M 74.679648 208.157141 
L 74.3266 193.939364 
M 79.605431 168.611482 
L 74.3266 193.939364 
M 301.160949 192.29146 
L 292.054496 182.423577 
M 301.160949 192.29146 
L 324.830056 219.703465 
M 301.160949 192.29146 
L 288.234042 206.039408 
M 301.160949 192.29146 
L 316.013862 178.041788 
M 301.160949 192.29146 
L 339.364125 192.133538 
M 116.244883 215.493781 
L 89.453903 220.950181 
M 116.244883 215.493781 
L 117.00335 212.540809 
M 116.244883 215.493781 
L 94.75783 209.259359 
M 116.244883 215.493781 
L 114.132111 239.964218 
M 266.176173 67.763161 
L 269.53256 65.467544 
M 398.487273 237.25542 
L 393.694934 165.271374 
M 398.487273 237.25542 
L 392.757457 229.337793 
M 398.487273 237.25542 
L 371.060256 247.940547 
M 325.749442 85.817149 
L 335.30132 68.13898 
M 325.749442 85.817149 
L 342.126739 111.44105 
M 272.51486 84.258594 
L 290.724095 99.96786 
M 272.51486 84.258594 
L 266.176173 67.763161 
M 79.839866 229.983548 
L 83.664267 227.573857 
M 79.839866 229.983548 
L 74.679648 208.157141 
M 79.839866 229.983548 
L 92.905863 259.589821 
M 371.563888 288.453717 
L 378.305096 289.796944 
M 371.563888 288.453717 
L 353.886361 287.669381 
M 190.658646 194.462416 
L 210.920381 192.436916 
M 190.658646 194.462416 
L 173.537386 183.576819 
M 131.65128 169.509967 
L 147.736897 162.848238 
M 131.65128 169.509967 
L 139.363652 176.843886 
M 247.966961 218.964161 
L 220.943388 210.251561 
M 314.448301 256.991616 
L 288.812659 263.714592 
M 135.304014 209.879957 
L 126.419886 195.237741 
M 374.19416 95.056121 
L 342.126739 111.44105 
M 107.134794 206.249175 
L 117.00335 212.540809 
M 107.134794 206.249175 
L 94.75783 209.259359 
M 107.134794 206.249175 
L 116.244883 215.493781 
M 148.515943 186.466382 
L 160.2821 174.633491 
M 148.515943 186.466382 
L 142.17173 186.212927 
M 148.515943 186.466382 
L 139.363652 176.843886 
M 148.515943 186.466382 
L 173.537386 183.576819 
M 148.515943 186.466382 
L 162.954591 180.481091 
M 162.873705 174.166907 
L 160.2821 174.633491 
M 162.873705 174.166907 
L 162.954591 180.481091 
M 375.475108 203.091106 
L 376.794162 184.641916 
M 285.842139 151.420907 
L 280.661546 169.051213 
M 285.842139 151.420907 
L 269.304104 119.285494 
M 285.842139 151.420907 
L 250.088867 148.475131 
M 319.338437 280.882711 
L 337.732916 284.980024 
M 316.992999 66.401873 
L 335.30132 68.13898 
M 316.992999 66.401873 
L 344.503659 67.48485 
M 316.992999 66.401873 
L 325.749442 85.817149 
M 270.522934 226.107926 
L 260.346853 228.903683 
M 270.522934 226.107926 
L 266.915946 238.827155 
M 293.158474 123.192096 
L 295.415386 100.96107 
M 293.158474 123.192096 
L 334.078221 121.932904 
M 293.158474 123.192096 
L 269.304104 119.285494 
M 293.158474 123.192096 
L 285.842139 151.420907 
M 287.921802 260.209541 
L 266.915946 238.827155 
M 287.921802 260.209541 
L 288.812659 263.714592 
M 287.921802 260.209541 
L 252.81001 255.897101 
M 287.921802 260.209541 
L 314.448301 256.991616 
M 392.210033 64.193682 
L 389.412381 66.699539 
M 211.661028 151.901891 
L 250.088867 148.475131 
M 341.310061 141.50893 
L 363.858194 132.194563 
M 341.310061 141.50893 
L 285.842139 151.420907 
M 322.34222 250.244615 
L 324.830056 219.703465 
M 322.34222 250.244615 
L 350.060418 255.034279 
M 322.34222 250.244615 
L 314.448301 256.991616 
M 173.182417 236.09387 
L 178.699574 222.995018 
M 268.052312 273.5509 
L 288.812659 263.714592 
M 268.052312 273.5509 
L 252.81001 255.897101 
M 268.052312 273.5509 
L 293.221572 278.537087 
M 268.052312 273.5509 
L 287.921802 260.209541 
M 366.59547 183.751499 
L 351.065624 181.315269 
M 366.59547 183.751499 
L 376.794162 184.641916 
M 366.59547 183.751499 
L 375.475108 203.091106 
M 218.301663 270.445874 
L 236.824703 278.364591 
M 218.301663 270.445874 
L 197.290664 279.847169 
M 218.301663 270.445874 
L 224.329454 282.377665 
M 297.281912 97.771546 
L 295.415386 100.96107 
M 297.281912 97.771546 
L 342.126739 111.44105 
M 297.281912 97.771546 
L 290.724095 99.96786 
M 297.281912 97.771546 
L 325.749442 85.817149 
M 297.281912 97.771546 
L 272.51486 84.258594 
M 279.072775 237.153662 
L 266.915946 238.827155 
M 279.072775 237.153662 
L 314.448301 256.991616 
M 279.072775 237.153662 
L 287.921802 260.209541 
M 279.072775 237.153662 
L 322.34222 250.244615 
M 330.347751 260.512827 
L 350.060418 255.034279 
M 330.347751 260.512827 
L 314.448301 256.991616 
M 330.347751 260.512827 
L 322.34222 250.244615 
M 344.116518 155.037347 
L 333.956422 169.176339 
M 167.168467 171.394035 
L 160.2821 174.633491 
M 167.168467 171.394035 
L 147.736897 162.848238 
M 167.168467 171.394035 
L 162.873705 174.166907 
M 278.842909 233.136889 
L 266.915946 238.827155 
M 278.842909 233.136889 
L 270.522934 226.107926 
M 278.842909 233.136889 
L 279.072775 237.153662 
M 350.574054 193.697664 
L 351.065624 181.315269 
M 350.574054 193.697664 
L 339.364125 192.133538 
M 350.574054 193.697664 
L 375.475108 203.091106 
M 350.574054 193.697664 
L 366.59547 183.751499 
M 365.518944 93.267996 
L 342.126739 111.44105 
M 365.518944 93.267996 
L 374.19416 95.056121 
M 104.657988 139.144536 
L 102.32726 123.835675 
M 104.657988 139.144536 
L 120.382234 136.115231 
M 104.657988 139.144536 
L 79.605431 168.611482 
M 104.657988 139.144536 
L 131.65128 169.509967 
M 174.116652 113.007795 
L 192.33959 92.674111 
M 250.480172 184.885491 
L 292.054496 182.423577 
M 250.480172 184.885491 
L 280.661546 169.051213 
M 366.515467 281.95238 
L 378.305096 289.796944 
M 366.515467 281.95238 
L 371.042463 263.545973 
M 366.515467 281.95238 
L 348.787859 264.045146 
M 366.515467 281.95238 
L 353.886361 287.669381 
M 366.515467 281.95238 
L 371.563888 288.453717 
M 255.311249 216.329318 
L 260.346853 228.903683 
M 255.311249 216.329318 
L 247.966961 218.964161 
M 255.311249 216.329318 
L 270.522934 226.107926 
M 83.580229 113.137432 
L 97.079034 106.736477 
M 83.580229 113.137432 
L 75.45711 94.438639 
M 256.766244 79.041347 
L 266.176173 67.763161 
M 256.766244 79.041347 
L 272.51486 84.258594 
M 268.780004 214.117331 
L 270.522934 226.107926 
M 268.780004 214.117331 
L 255.311249 216.329318 
M 396.073353 267.778171 
L 378.305096 289.796944 
M 396.073353 267.778171 
L 398.487273 237.25542 
M 89.280559 118.20398 
L 97.079034 106.736477 
M 89.280559 118.20398 
L 102.32726 123.835675 
M 89.280559 118.20398 
L 83.580229 113.137432 
M 193.979289 208.19389 
L 220.943388 210.251561 
M 193.979289 208.19389 
L 210.920381 192.436916 
M 193.979289 208.19389 
L 178.699574 222.995018 
M 193.979289 208.19389 
L 190.658646 194.462416 
M 360.319652 216.479024 
L 324.830056 219.703465 
M 360.319652 216.479024 
L 375.475108 203.091106 
M 364.417307 139.693978 
L 386.286392 130.256091 
M 364.417307 139.693978 
L 363.858194 132.194563 
M 364.417307 139.693978 
L 341.310061 141.50893 
M 364.417307 139.693978 
L 344.116518 155.037347 
M 180.220474 281.399795 
L 197.290664 279.847169 
M 180.220474 281.399795 
L 208.457117 295.488 
M 180.220474 281.399795 
L 163.170556 266.585672 
M 152.607616 61.034516 
L 127.604026 83.270881 
M 152.607616 61.034516 
L 85.012922 56.131742 
M 205.293081 257.03258 
L 197.290664 279.847169 
M 205.293081 257.03258 
L 252.81001 255.897101 
M 205.293081 257.03258 
L 163.170556 266.585672 
M 205.293081 257.03258 
L 196.446885 245.81832 
M 205.293081 257.03258 
L 218.301663 270.445874 
M 205.293081 257.03258 
L 180.220474 281.399795 
M 170.010814 77.724693 
L 166.764764 75.295811 
M 170.010814 77.724693 
L 192.33959 92.674111 
M 170.010814 77.724693 
L 127.604026 83.270881 
M 170.010814 77.724693 
L 174.116652 113.007795 
M 126.247286 107.235631 
L 97.079034 106.736477 
M 126.247286 107.235631 
L 131.337891 116.143824 
M 126.247286 107.235631 
L 127.743064 106.176069 
M 116.341654 62.736446 
L 127.604026 83.270881 
M 116.341654 62.736446 
L 85.012922 56.131742 
M 116.341654 62.736446 
L 152.607616 61.034516 
M 246.392442 285.367066 
L 236.824703 278.364591 
M 246.392442 285.367066 
L 208.457117 295.488 
M 246.392442 285.367066 
L 224.329454 282.377665 
M 246.392442 285.367066 
L 293.221572 278.537087 
M 246.392442 285.367066 
L 268.052312 273.5509 
M 378.222415 208.979341 
L 392.757457 229.337793 
M 378.222415 208.979341 
L 375.475108 203.091106 
M 378.222415 208.979341 
L 360.319652 216.479024 
M 312.584164 168.856807 
L 316.013862 178.041788 
M 312.584164 168.856807 
L 333.956422 169.176339 
M 312.584164 168.856807 
L 285.842139 151.420907 
M 312.584164 168.856807 
L 341.310061 141.50893 
M 312.584164 168.856807 
L 344.116518 155.037347 
M 102.432349 270.119062 
L 92.905863 259.589821 
M 121.065606 256.749741 
L 114.132111 239.964218 
M 121.065606 256.749741 
L 92.905863 259.589821 
M 121.065606 256.749741 
L 102.432349 270.119062 
M 89.331235 284.435245 
L 74.679648 208.157141 
M 89.331235 284.435245 
L 92.905863 259.589821 
M 89.331235 284.435245 
L 79.839866 229.983548 
M 89.331235 284.435245 
L 102.432349 270.119062 
M 383.970514 273.699542 
L 378.305096 289.796944 
M 383.970514 273.699542 
L 371.042463 263.545973 
M 383.970514 273.699542 
L 366.515467 281.95238 
M 239.203473 267.07122 
L 236.824703 278.364591 
M 239.203473 267.07122 
L 252.81001 255.897101 
M 239.203473 267.07122 
L 268.052312 273.5509 
M 239.203473 267.07122 
L 218.301663 270.445874 
M 239.203473 267.07122 
L 205.293081 257.03258 
M 239.203473 267.07122 
L 246.392442 285.367066 
M 142.633094 110.821097 
L 131.337891 116.143824 
M 142.633094 110.821097 
L 127.743064 106.176069 
M 142.633094 110.821097 
L 127.604026 83.270881 
M 142.633094 110.821097 
L 174.116652 113.007795 
M 142.633094 110.821097 
L 170.010814 77.724693 
M 380.584386 181.948399 
L 376.794162 184.641916 
M 380.584386 181.948399 
L 375.475108 203.091106 
M 380.584386 181.948399 
L 366.59547 183.751499 
M 73.832727 53.568 
L 74.3266 193.939364 
M 73.832727 53.568 
L 75.45711 94.438639 
M 73.832727 53.568 
L 85.012922 56.131742 
M 73.832727 53.568 
L 152.607616 61.034516 
M 87.692172 201.409233 
L 94.75783 209.259359 
M 87.692172 201.409233 
L 74.3266 193.939364 
M 87.692172 201.409233 
L 74.679648 208.157141 
M 249.304159 79.626131 
L 266.176173 67.763161 
M 249.304159 79.626131 
L 256.766244 79.041347 
M 342.746663 148.083346 
L 341.310061 141.50893 
M 342.746663 148.083346 
L 344.116518 155.037347 
M 342.746663 148.083346 
L 364.417307 139.693978 
M 342.746663 148.083346 
L 312.584164 168.856807 
M 203.100456 93.507991 
L 192.33959 92.674111 
M 203.100456 93.507991 
L 207.83402 76.064465 
M 203.100456 93.507991 
L 219.389955 107.953231 
M 203.100456 93.507991 
L 223.505109 107.149914 
M 357.86109 84.433715 
L 335.30132 68.13898 
M 357.86109 84.433715 
L 342.126739 111.44105 
M 357.86109 84.433715 
L 344.503659 67.48485 
M 357.86109 84.433715 
L 325.749442 85.817149 
M 357.86109 84.433715 
L 365.518944 93.267996 
M 308.04952 272.124643 
L 288.812659 263.714592 
M 308.04952 272.124643 
L 314.448301 256.991616 
M 308.04952 272.124643 
L 319.338437 280.882711 
M 170.197063 178.018311 
L 173.537386 183.576819 
M 170.197063 178.018311 
L 162.954591 180.481091 
M 170.197063 178.018311 
L 162.873705 174.166907 
M 170.197063 178.018311 
L 167.168467 171.394035 
M 238.118466 93.89721 
L 223.505109 107.149914 
M 238.118466 93.89721 
L 247.19491 102.606796 
M 238.118466 93.89721 
L 249.304159 79.626131 
M 238.118466 93.89721 
L 203.100456 93.507991 
M 150.215238 134.698672 
L 131.337891 116.143824 
M 150.215238 134.698672 
L 145.689379 156.453976 
M 150.215238 134.698672 
L 174.116652 113.007795 
M 150.215238 134.698672 
L 142.633094 110.821097 
M 195.073076 107.812078 
L 216.195296 120.424102 
M 195.073076 107.812078 
L 192.33959 92.674111 
M 195.073076 107.812078 
L 219.389955 107.953231 
M 195.073076 107.812078 
L 174.116652 113.007795 
M 195.073076 107.812078 
L 203.100456 93.507991 
M 136.37843 180.2719 
L 142.17173 186.212927 
M 136.37843 180.2719 
L 139.363652 176.843886 
M 136.37843 180.2719 
L 126.419886 195.237741 
M 136.37843 180.2719 
L 131.65128 169.509967 
M 106.043255 244.435263 
L 114.132111 239.964218 
M 106.043255 244.435263 
L 121.065606 256.749741 
M 379.610624 219.205836 
L 392.757457 229.337793 
M 379.610624 219.205836 
L 371.060256 247.940547 
M 379.610624 219.205836 
L 360.319652 216.479024 
M 379.610624 219.205836 
L 378.222415 208.979341 
M 365.729328 168.712527 
L 393.694934 165.271374 
M 365.729328 168.712527 
L 351.065624 181.315269 
M 365.729328 168.712527 
L 333.956422 169.176339 
M 365.729328 168.712527 
L 366.59547 183.751499 
M 365.729328 168.712527 
L 344.116518 155.037347 
M 365.729328 168.712527 
L 364.417307 139.693978 
M 365.729328 168.712527 
L 380.584386 181.948399 
M 84.817053 103.569275 
L 97.079034 106.736477 
M 84.817053 103.569275 
L 75.45711 94.438639 
M 84.817053 103.569275 
L 83.580229 113.137432 
M 89.068431 95.334957 
L 97.079034 106.736477 
M 89.068431 95.334957 
L 85.35084 83.52042 
M 89.068431 95.334957 
L 75.45711 94.438639 
M 89.068431 95.334957 
L 84.817053 103.569275 
M 74.871302 132.390334 
L 102.32726 123.835675 
M 74.871302 132.390334 
L 74.3266 193.939364 
M 74.871302 132.390334 
L 79.605431 168.611482 
M 74.871302 132.390334 
L 75.45711 94.438639 
M 74.871302 132.390334 
L 104.657988 139.144536 
M 74.871302 132.390334 
L 83.580229 113.137432 
M 74.871302 132.390334 
L 89.280559 118.20398 
M 74.871302 132.390334 
L 73.832727 53.568 
M 126.489798 212.701144 
L 117.00335 212.540809 
M 126.489798 212.701144 
L 126.419886 195.237741 
M 126.489798 212.701144 
L 116.244883 215.493781 
M 126.489798 212.701144 
L 135.304014 209.879957 
M 385.392635 177.942806 
L 393.694934 165.271374 
M 385.392635 177.942806 
L 380.584386 181.948399 
M 385.392635 177.942806 
L 365.729328 168.712527 
M 288.242899 116.236874 
L 295.415386 100.96107 
M 288.242899 116.236874 
L 269.304104 119.285494 
M 288.242899 116.236874 
L 290.724095 99.96786 
M 288.242899 116.236874 
L 293.158474 123.192096 
M 108.138524 92.46129 
L 97.079034 106.736477 
M 108.138524 92.46129 
L 85.35084 83.52042 
M 108.138524 92.46129 
L 127.743064 106.176069 
M 108.138524 92.46129 
L 127.604026 83.270881 
M 108.138524 92.46129 
L 126.247286 107.235631 
M 108.138524 92.46129 
L 116.341654 62.736446 
M 108.138524 92.46129 
L 89.068431 95.334957 
M 372.618689 258.150992 
L 371.042463 263.545973 
M 372.618689 258.150992 
L 371.060256 247.940547 
M 372.618689 258.150992 
L 350.060418 255.034279 
M 372.618689 258.150992 
L 398.487273 237.25542 
M 372.618689 258.150992 
L 396.073353 267.778171 
M 251.666651 227.095898 
L 260.346853 228.903683 
M 251.666651 227.095898 
L 247.966961 218.964161 
M 251.666651 227.095898 
L 255.311249 216.329318 
M 315.618957 288.979578 
L 378.305096 289.796944 
M 315.618957 288.979578 
L 208.457117 295.488 
M 315.618957 288.979578 
L 353.886361 287.669381 
M 315.618957 288.979578 
L 337.732916 284.980024 
M 315.618957 288.979578 
L 293.221572 278.537087 
M 315.618957 288.979578 
L 319.338437 280.882711 
M 315.618957 288.979578 
L 246.392442 285.367066 
M 240.583563 103.609724 
L 244.157889 113.891151 
M 240.583563 103.609724 
L 223.505109 107.149914 
M 240.583563 103.609724 
L 247.19491 102.606796 
M 240.583563 103.609724 
L 238.118466 93.89721 
M 313.674869 269.603933 
L 314.448301 256.991616 
M 313.674869 269.603933 
L 319.338437 280.882711 
M 313.674869 269.603933 
L 330.347751 260.512827 
M 313.674869 269.603933 
L 308.04952 272.124643 
M 345.979668 238.167592 
L 324.830056 219.703465 
M 345.979668 238.167592 
L 371.060256 247.940547 
M 345.979668 238.167592 
L 350.060418 255.034279 
M 345.979668 238.167592 
L 322.34222 250.244615 
M 345.979668 238.167592 
L 360.319652 216.479024 
M 345.979668 238.167592 
L 379.610624 219.205836 
M 337.705541 175.30114 
L 351.065624 181.315269 
M 337.705541 175.30114 
L 316.013862 178.041788 
M 337.705541 175.30114 
L 333.956422 169.176339 
M 337.705541 175.30114 
L 365.729328 168.712527 
M 124.881795 117.859988 
L 97.079034 106.736477 
M 124.881795 117.859988 
L 131.337891 116.143824 
M 124.881795 117.859988 
L 102.32726 123.835675 
M 124.881795 117.859988 
L 120.382234 136.115231 
M 124.881795 117.859988 
L 126.247286 107.235631 
M 337.746767 126.379845 
L 334.078221 121.932904 
M 337.746767 126.379845 
L 342.126739 111.44105 
M 337.746767 126.379845 
L 341.310061 141.50893 
M 389.371373 233.72971 
L 392.757457 229.337793 
M 389.371373 233.72971 
L 371.060256 247.940547 
M 389.371373 233.72971 
L 398.487273 237.25542 
M 389.371373 233.72971 
L 379.610624 219.205836 
M 149.53283 260.136858 
L 163.170556 266.585672 
M 149.53283 260.136858 
L 121.065606 256.749741 
M 249.419133 198.984431 
L 250.480172 184.885491 
M 249.419133 198.984431 
L 255.311249 216.329318 
M 189.303848 184.229466 
L 173.537386 183.576819 
M 189.303848 184.229466 
L 190.658646 194.462416 
M 162.289817 294.800996 
L 208.457117 295.488 
M 162.289817 294.800996 
L 163.170556 266.585672 
M 162.289817 294.800996 
L 180.220474 281.399795 
M 227.163259 228.943575 
L 220.943388 210.251561 
M 227.163259 228.943575 
L 247.966961 218.964161 
M 227.163259 228.943575 
L 196.446885 245.81832 
M 227.163259 228.943575 
L 205.293081 257.03258 
M 227.163259 228.943575 
L 251.666651 227.095898 
M 219.936997 70.620838 
L 207.83402 76.064465 
M 130.862147 141.271021 
L 131.337891 116.143824 
M 130.862147 141.271021 
L 120.382234 136.115231 
M 130.862147 141.271021 
L 131.65128 169.509967 
M 130.862147 141.271021 
L 104.657988 139.144536 
M 130.862147 141.271021 
L 150.215238 134.698672 
M 283.962656 227.632201 
L 324.830056 219.703465 
M 283.962656 227.632201 
L 288.234042 206.039408 
M 283.962656 227.632201 
L 270.522934 226.107926 
M 283.962656 227.632201 
L 322.34222 250.244615 
M 283.962656 227.632201 
L 279.072775 237.153662 
M 283.962656 227.632201 
L 278.842909 233.136889 
M 226.879469 60.743944 
L 266.176173 67.763161 
M 226.879469 60.743944 
L 152.607616 61.034516 
M 226.879469 60.743944 
L 249.304159 79.626131 
M 184.632001 123.120233 
L 174.116652 113.007795 
M 184.632001 123.120233 
L 150.215238 134.698672 
M 184.632001 123.120233 
L 195.073076 107.812078 
M 348.374174 208.381546 
L 324.830056 219.703465 
M 348.374174 208.381546 
L 339.364125 192.133538 
M 348.374174 208.381546 
L 375.475108 203.091106 
M 348.374174 208.381546 
L 350.574054 193.697664 
M 348.374174 208.381546 
L 360.319652 216.479024 
M 397.617642 144.087009 
L 393.694934 165.271374 
M 397.617642 144.087009 
L 386.286392 130.256091 
M 397.617642 144.087009 
L 398.487273 237.25542 
M 397.617642 144.087009 
L 364.417307 139.693978 
M 236.78023 122.498974 
L 244.157889 113.891151 
M 236.78023 122.498974 
L 222.999395 121.428134 
M 236.78023 122.498974 
L 244.464813 127.044346 
M 236.78023 122.498974 
L 223.505109 107.149914 
M 211.399309 123.124709 
L 216.195296 120.424102 
M 211.399309 123.124709 
L 217.221816 121.450435 
M 211.399309 123.124709 
L 195.073076 107.812078 
M 162.375397 71.024967 
L 166.764764 75.295811 
M 162.375397 71.024967 
L 127.604026 83.270881 
M 162.375397 71.024967 
L 152.607616 61.034516 
M 250.260158 237.244127 
L 260.346853 228.903683 
M 250.260158 237.244127 
L 266.915946 238.827155 
M 250.260158 237.244127 
L 252.81001 255.897101 
M 250.260158 237.244127 
L 205.293081 257.03258 
M 250.260158 237.244127 
L 251.666651 227.095898 
M 250.260158 237.244127 
L 227.163259 228.943575 
M 215.796413 78.81072 
L 207.83402 76.064465 
M 215.796413 78.81072 
L 203.100456 93.507991 
M 215.796413 78.81072 
L 238.118466 93.89721 
M 215.796413 78.81072 
L 219.936997 70.620838 
M 337.464641 178.370628 
L 351.065624 181.315269 
M 337.464641 178.370628 
L 316.013862 178.041788 
M 337.464641 178.370628 
L 339.364125 192.133538 
M 337.464641 178.370628 
L 337.705541 175.30114 
M 187.67209 204.609796 
L 173.537386 183.576819 
M 187.67209 204.609796 
L 178.699574 222.995018 
M 187.67209 204.609796 
L 190.658646 194.462416 
M 187.67209 204.609796 
L 193.979289 208.19389 
M 394.749525 268.627081 
L 378.305096 289.796944 
M 394.749525 268.627081 
L 371.042463 263.545973 
M 394.749525 268.627081 
L 396.073353 267.778171 
M 394.749525 268.627081 
L 383.970514 273.699542 
M 394.749525 268.627081 
L 372.618689 258.150992 
M 364.428919 87.899902 
L 374.19416 95.056121 
M 364.428919 87.899902 
L 365.518944 93.267996 
M 364.428919 87.899902 
L 357.86109 84.433715 
M 145.79128 211.129169 
L 135.304014 209.879957 
M 259.338448 101.287499 
L 244.157889 113.891151 
M 259.338448 101.287499 
L 269.304104 119.285494 
M 259.338448 101.287499 
L 247.19491 102.606796 
M 259.338448 101.287499 
L 290.724095 99.96786 
M 259.338448 101.287499 
L 272.51486 84.258594 
M 259.338448 101.287499 
L 256.766244 79.041347 
M 259.338448 101.287499 
L 249.304159 79.626131 
M 259.338448 101.287499 
L 238.118466 93.89721 
M 384.63406 55.362091 
L 389.412381 66.699539 
M 384.63406 55.362091 
L 344.503659 67.48485 
M 384.63406 55.362091 
L 316.992999 66.401873 
M 384.63406 55.362091 
L 392.210033 64.193682 
M 384.63406 55.362091 
L 73.832727 53.568 
M 164.490379 249.193888 
L 163.170556 266.585672 
M 164.490379 249.193888 
L 173.182417 236.09387 
M 164.490379 249.193888 
L 149.53283 260.136858 
M 232.418199 160.648179 
L 250.088867 148.475131 
M 232.418199 160.648179 
L 211.661028 151.901891 
M 288.005487 269.747637 
L 288.812659 263.714592 
M 288.005487 269.747637 
L 293.221572 278.537087 
M 288.005487 269.747637 
L 268.052312 273.5509 
M 288.005487 269.747637 
L 308.04952 272.124643 
M 284.601205 72.43831 
L 269.53256 65.467544 
M 284.601205 72.43831 
L 266.176173 67.763161 
M 284.601205 72.43831 
L 325.749442 85.817149 
M 284.601205 72.43831 
L 272.51486 84.258594 
M 284.601205 72.43831 
L 316.992999 66.401873 
M 284.601205 72.43831 
L 297.281912 97.771546 
M 373.040128 67.008485 
L 389.412381 66.699539 
M 373.040128 67.008485 
L 344.503659 67.48485 
M 373.040128 67.008485 
L 357.86109 84.433715 
M 373.040128 67.008485 
L 364.428919 87.899902 
M 375.388409 62.885772 
L 389.412381 66.699539 
M 375.388409 62.885772 
L 344.503659 67.48485 
M 375.388409 62.885772 
L 384.63406 55.362091 
M 375.388409 62.885772 
L 373.040128 67.008485 
M 87.994592 73.738101 
L 85.35084 83.52042 
M 87.994592 73.738101 
L 85.012922 56.131742 
M 87.994592 73.738101 
L 116.341654 62.736446 
M 87.994592 73.738101 
L 73.832727 53.568 
M 87.994592 73.738101 
L 108.138524 92.46129 
M 161.194575 218.086014 
L 178.699574 222.995018 
M 161.194575 218.086014 
L 173.182417 236.09387 
M 161.194575 218.086014 
L 187.67209 204.609796 
M 161.194575 218.086014 
L 145.79128 211.129169 
M 222.84191 64.218668 
L 207.83402 76.064465 
M 222.84191 64.218668 
L 152.607616 61.034516 
M 222.84191 64.218668 
L 219.936997 70.620838 
M 222.84191 64.218668 
L 226.879469 60.743944 
M 271.026027 210.320698 
L 292.054496 182.423577 
M 271.026027 210.320698 
L 288.234042 206.039408 
M 271.026027 210.320698 
L 250.480172 184.885491 
M 271.026027 210.320698 
L 255.311249 216.329318 
M 271.026027 210.320698 
L 268.780004 214.117331 
M 271.026027 210.320698 
L 249.419133 198.984431 
M 195.059178 76.426887 
L 166.764764 75.295811 
M 195.059178 76.426887 
L 192.33959 92.674111 
M 195.059178 76.426887 
L 207.83402 76.064465 
M 195.059178 76.426887 
L 152.607616 61.034516 
M 195.059178 76.426887 
L 170.010814 77.724693 
M 195.059178 76.426887 
L 203.100456 93.507991 
M 195.059178 76.426887 
L 162.375397 71.024967 
M 195.059178 76.426887 
L 222.84191 64.218668 
M 342.49516 262.48685 
L 348.787859 264.045146 
M 342.49516 262.48685 
L 350.060418 255.034279 
M 342.49516 262.48685 
L 330.347751 260.512827 
M 153.782825 205.652902 
L 142.17173 186.212927 
M 153.782825 205.652902 
L 173.537386 183.576819 
M 153.782825 205.652902 
L 126.419886 195.237741 
M 153.782825 205.652902 
L 135.304014 209.879957 
M 153.782825 205.652902 
L 148.515943 186.466382 
M 153.782825 205.652902 
L 187.67209 204.609796 
M 153.782825 205.652902 
L 145.79128 211.129169 
M 153.782825 205.652902 
L 161.194575 218.086014 
M 143.275925 159.213349 
L 147.736897 162.848238 
M 143.275925 159.213349 
L 145.689379 156.453976 
M 143.275925 159.213349 
L 131.65128 169.509967 
M 143.275925 159.213349 
L 130.862147 141.271021 
M 145.544677 156.438965 
L 145.689379 156.453976 
M 145.544677 156.438965 
L 150.215238 134.698672 
M 145.544677 156.438965 
L 130.862147 141.271021 
M 145.544677 156.438965 
L 143.275925 159.213349 
M 379.890217 90.065753 
L 374.19416 95.056121 
M 379.890217 90.065753 
L 364.428919 87.899902 
M 104.630339 245.668253 
L 92.905863 259.589821 
M 104.630339 245.668253 
L 121.065606 256.749741 
M 104.630339 245.668253 
L 106.043255 244.435263 
M 207.754219 139.175215 
L 222.999395 121.428134 
M 207.754219 139.175215 
L 244.464813 127.044346 
M 207.754219 139.175215 
L 250.088867 148.475131 
M 207.754219 139.175215 
L 217.221816 121.450435 
M 207.754219 139.175215 
L 211.661028 151.901891 
M 207.754219 139.175215 
L 184.632001 123.120233 
M 207.754219 139.175215 
L 236.78023 122.498974 
M 207.754219 139.175215 
L 211.399309 123.124709 
M 199.141133 234.828549 
L 220.943388 210.251561 
M 199.141133 234.828549 
L 178.699574 222.995018 
M 199.141133 234.828549 
L 196.446885 245.81832 
M 199.141133 234.828549 
L 173.182417 236.09387 
M 199.141133 234.828549 
L 193.979289 208.19389 
M 199.141133 234.828549 
L 227.163259 228.943575 
M 185.355353 246.36925 
L 163.170556 266.585672 
M 185.355353 246.36925 
L 196.446885 245.81832 
M 185.355353 246.36925 
L 173.182417 236.09387 
M 185.355353 246.36925 
L 205.293081 257.03258 
M 185.355353 246.36925 
L 164.490379 249.193888 
M 185.355353 246.36925 
L 199.141133 234.828549 
M 355.495329 126.779764 
L 386.286392 130.256091 
M 355.495329 126.779764 
L 363.858194 132.194563 
M 355.495329 126.779764 
L 342.126739 111.44105 
M 355.495329 126.779764 
L 374.19416 95.056121 
M 355.495329 126.779764 
L 341.310061 141.50893 
M 355.495329 126.779764 
L 337.746767 126.379845 
M 207.188364 126.008817 
L 195.073076 107.812078 
M 207.188364 126.008817 
L 184.632001 123.120233 
M 207.188364 126.008817 
L 211.399309 123.124709 
M 207.188364 126.008817 
L 207.754219 139.175215 
M 242.946248 168.237522 
L 280.661546 169.051213 
M 242.946248 168.237522 
L 250.088867 148.475131 
M 242.946248 168.237522 
L 250.480172 184.885491 
M 242.946248 168.237522 
L 232.418199 160.648179 
M 192.821588 177.461555 
L 194.475948 180.084271 
M 192.821588 177.461555 
L 173.537386 183.576819 
M 192.821588 177.461555 
L 211.661028 151.901891 
M 192.821588 177.461555 
L 167.168467 171.394035 
M 192.821588 177.461555 
L 170.197063 178.018311 
M 192.821588 177.461555 
L 189.303848 184.229466 
M 192.821588 177.461555 
L 232.418199 160.648179 
M 396.170917 105.634245 
L 386.286392 130.256091 
M 396.170917 105.634245 
L 374.19416 95.056121 
M 396.170917 105.634245 
L 392.210033 64.193682 
M 396.170917 105.634245 
L 397.617642 144.087009 
M 396.170917 105.634245 
L 379.890217 90.065753 
M 396.170917 105.634245 
L 355.495329 126.779764 
M 344.255985 265.679019 
L 348.787859 264.045146 
M 344.255985 265.679019 
L 342.49516 262.48685 
M 237.862081 206.875923 
L 220.943388 210.251561 
M 237.862081 206.875923 
L 210.920381 192.436916 
M 237.862081 206.875923 
L 247.966961 218.964161 
M 237.862081 206.875923 
L 255.311249 216.329318 
M 237.862081 206.875923 
L 249.419133 198.984431 
M 101.223481 199.995916 
L 126.419886 195.237741 
M 101.223481 199.995916 
L 94.75783 209.259359 
M 101.223481 199.995916 
L 74.3266 193.939364 
M 101.223481 199.995916 
L 79.605431 168.611482 
M 101.223481 199.995916 
L 107.134794 206.249175 
M 101.223481 199.995916 
L 87.692172 201.409233 
M 96.38144 239.094027 
L 89.453903 220.950181 
M 96.38144 239.094027 
L 114.132111 239.964218 
M 96.38144 239.094027 
L 83.664267 227.573857 
M 96.38144 239.094027 
L 92.905863 259.589821 
M 96.38144 239.094027 
L 116.244883 215.493781 
M 96.38144 239.094027 
L 79.839866 229.983548 
M 96.38144 239.094027 
L 106.043255 244.435263 
M 96.38144 239.094027 
L 104.630339 245.668253 
M 334.736715 129.455102 
L 334.078221 121.932904 
M 334.736715 129.455102 
L 285.842139 151.420907 
M 334.736715 129.455102 
L 293.158474 123.192096 
M 334.736715 129.455102 
L 341.310061 141.50893 
M 334.736715 129.455102 
L 337.746767 126.379845 
M 301.769764 276.593013 
L 293.221572 278.537087 
M 301.769764 276.593013 
L 319.338437 280.882711 
M 301.769764 276.593013 
L 308.04952 272.124643 
M 301.769764 276.593013 
L 315.618957 288.979578 
M 301.769764 276.593013 
L 288.005487 269.747637 
M 125.920157 290.600712 
L 163.170556 266.585672 
M 125.920157 290.600712 
L 121.065606 256.749741 
M 125.920157 290.600712 
L 89.331235 284.435245 
M 125.920157 290.600712 
L 149.53283 260.136858 
M 125.920157 290.600712 
L 162.289817 294.800996 
M 104.055011 271.292659 
L 102.432349 270.119062 
M 104.055011 271.292659 
L 121.065606 256.749741 
M 104.055011 271.292659 
L 89.331235 284.435245 
M 104.055011 271.292659 
L 125.920157 290.600712 
M 387.824725 79.088402 
L 389.412381 66.699539 
M 387.824725 79.088402 
L 392.210033 64.193682 
M 387.824725 79.088402 
L 364.428919 87.899902 
M 387.824725 79.088402 
L 373.040128 67.008485 
M 387.824725 79.088402 
L 379.890217 90.065753 
M 387.824725 79.088402 
L 396.170917 105.634245 
M 139.167884 234.294999 
L 114.132111 239.964218 
M 139.167884 234.294999 
L 116.244883 215.493781 
M 139.167884 234.294999 
L 135.304014 209.879957 
M 139.167884 234.294999 
L 173.182417 236.09387 
M 139.167884 234.294999 
L 121.065606 256.749741 
M 139.167884 234.294999 
L 126.489798 212.701144 
M 139.167884 234.294999 
L 149.53283 260.136858 
M 139.167884 234.294999 
L 145.79128 211.129169 
M 139.167884 234.294999 
L 164.490379 249.193888 
M 139.167884 234.294999 
L 161.194575 218.086014 
M 388.065903 157.633519 
L 393.694934 165.271374 
M 388.065903 157.633519 
L 364.417307 139.693978 
M 388.065903 157.633519 
L 365.729328 168.712527 
M 388.065903 157.633519 
L 397.617642 144.087009 
M 193.205707 182.716604 
L 194.475948 180.084271 
M 193.205707 182.716604 
L 210.920381 192.436916 
M 193.205707 182.716604 
L 190.658646 194.462416 
M 193.205707 182.716604 
L 189.303848 184.229466 
M 193.205707 182.716604 
L 192.821588 177.461555 
M 161.522593 154.34103 
L 147.736897 162.848238 
M 161.522593 154.34103 
L 145.689379 156.453976 
M 161.522593 154.34103 
L 211.661028 151.901891 
M 161.522593 154.34103 
L 167.168467 171.394035 
M 161.522593 154.34103 
L 150.215238 134.698672 
M 161.522593 154.34103 
L 184.632001 123.120233 
M 161.522593 154.34103 
L 207.754219 139.175215 
M 161.522593 154.34103 
L 192.821588 177.461555 
M 310.561247 170.859451 
L 292.054496 182.423577 
M 310.561247 170.859451 
L 280.661546 169.051213 
M 310.561247 170.859451 
L 316.013862 178.041788 
M 310.561247 170.859451 
L 285.842139 151.420907 
M 310.561247 170.859451 
L 312.584164 168.856807 
M 341.942103 268.385169 
L 348.787859 264.045146 
M 341.942103 268.385169 
L 353.886361 287.669381 
M 341.942103 268.385169 
L 337.732916 284.980024 
M 341.942103 268.385169 
L 319.338437 280.882711 
M 341.942103 268.385169 
L 330.347751 260.512827 
M 341.942103 268.385169 
L 366.515467 281.95238 
M 341.942103 268.385169 
L 313.674869 269.603933 
M 341.942103 268.385169 
L 342.49516 262.48685 
M 341.942103 268.385169 
L 344.255985 265.679019 
M 270.553666 55.897052 
L 269.53256 65.467544 
M 270.553666 55.897052 
L 266.176173 67.763161 
M 270.553666 55.897052 
L 316.992999 66.401873 
M 270.553666 55.897052 
L 152.607616 61.034516 
M 270.553666 55.897052 
L 73.832727 53.568 
M 270.553666 55.897052 
L 226.879469 60.743944 
M 270.553666 55.897052 
L 384.63406 55.362091 
M 270.553666 55.897052 
L 284.601205 72.43831 
M 121.017611 175.808547 
L 126.419886 195.237741 
M 121.017611 175.808547 
L 79.605431 168.611482 
M 121.017611 175.808547 
L 131.65128 169.509967 
M 121.017611 175.808547 
L 104.657988 139.144536 
M 121.017611 175.808547 
L 136.37843 180.2719 
M 121.017611 175.808547 
L 101.223481 199.995916 
M 279.268543 213.99728 
L 288.234042 206.039408 
M 279.268543 213.99728 
L 270.522934 226.107926 
M 279.268543 213.99728 
L 268.780004 214.117331 
M 279.268543 213.99728 
L 283.962656 227.632201 
M 279.268543 213.99728 
L 271.026027 210.320698 
M 389.296035 178.142365 
L 393.694934 165.271374 
M 389.296035 178.142365 
L 392.757457 229.337793 
M 389.296035 178.142365 
L 398.487273 237.25542 
M 389.296035 178.142365 
L 375.475108 203.091106 
M 389.296035 178.142365 
L 378.222415 208.979341 
M 389.296035 178.142365 
L 380.584386 181.948399 
M 389.296035 178.142365 
L 385.392635 177.942806 
M 229.448864 76.976001 
L 249.304159 79.626131 
M 229.448864 76.976001 
L 238.118466 93.89721 
M 229.448864 76.976001 
L 219.936997 70.620838 
M 229.448864 76.976001 
L 226.879469 60.743944 
M 229.448864 76.976001 
L 215.796413 78.81072 
M 229.448864 76.976001 
L 222.84191 64.218668 
M 77.210626 85.165877 
L 85.35084 83.52042 
M 77.210626 85.165877 
L 75.45711 94.438639 
M 77.210626 85.165877 
L 73.832727 53.568 
M 77.210626 85.165877 
L 89.068431 95.334957 
M 77.210626 85.165877 
L 87.994592 73.738101 
M 114.436578 203.901575 
L 117.00335 212.540809 
M 114.436578 203.901575 
L 126.419886 195.237741 
M 114.436578 203.901575 
L 107.134794 206.249175 
M 114.436578 203.901575 
L 126.489798 212.701144 
M 114.436578 203.901575 
L 101.223481 199.995916 
M 232.658673 180.288532 
L 194.475948 180.084271 
M 232.658673 180.288532 
L 210.920381 192.436916 
M 232.658673 180.288532 
L 250.480172 184.885491 
M 232.658673 180.288532 
L 249.419133 198.984431 
M 232.658673 180.288532 
L 232.418199 160.648179 
M 232.658673 180.288532 
L 242.946248 168.237522 
M 232.658673 180.288532 
L 192.821588 177.461555 
M 232.658673 180.288532 
L 237.862081 206.875923 
M 84.940546 218.948826 
L 89.453903 220.950181 
M 84.940546 218.948826 
L 94.75783 209.259359 
M 84.940546 218.948826 
L 83.664267 227.573857 
M 84.940546 218.948826 
L 74.679648 208.157141 
M 84.940546 218.948826 
L 79.839866 229.983548 
L 79.839866 229.983548 
" clip-path="url(#pb866b38579)" style="fill: none; stroke: #1f77b4; stroke-width: 1.5; stroke-linecap: square"/>
   </g>
   <g id="line2d_2"/>
   <g id="line2d_3">
    <defs>
     <path id="m98e3bc2abc" d="M 0 3 
C 0.795609 3 1.55874 2.683901 2.12132 2.12132 
C 2.683901 1.55874 3 0.795609 3 0 
C 3 -0.795609 2.683901 -1.55874 2.12132 -2.12132 
C 1.55874 -2.683901 0.795609 -3 0 -3 
C -0.795609 -3 -1.55874 -2.683901 -2.12132 -2.12132 
C -2.683901 -1.55874 -3 -0.795609 -3 0 
C -3 0.795609 -2.683901 1.55874 -2.12132 2.12132 
C -1.55874 2.683901 -0.795609 3 0 3 
z
" style="stroke: #2ca02c"/>
    </defs>
    <g clip-path="url(#pb866b38579)">
     <use xlink:href="#m98e3bc2abc" x="97.079034" y="106.736477" style="fill: #2ca02c; stroke: #2ca02c"/>
     <use xlink:href="#m98e3bc2abc" x="216.195296" y="120.424102" style="fill: #2ca02c; stroke: #2ca02c"/>
     <use xlink:href="#m98e3bc2abc" x="393.694934" y="165.271374" style="fill: #2ca02c; stroke: #2ca02c"/>
     <use xlink:href="#m98e3bc2abc" x="236.824703" y="278.364591" style="fill: #2ca02c; stroke: #2ca02c"/>
     <use xlink:href="#m98e3bc2abc" x="160.2821" y="174.633491" style="fill: #2ca02c; stroke: #2ca02c"/>
     <use xlink:href="#m98e3bc2abc" x="295.415386" y="100.96107" style="fill: #2ca02c; stroke: #2ca02c"/>
     <use xlink:href="#m98e3bc2abc" x="197.290664" y="279.847169" style="fill: #2ca02c; stroke: #2ca02c"/>
     <use xlink:href="#m98e3bc2abc" x="166.764764" y="75.295811" style="fill: #2ca02c; stroke: #2ca02c"/>
     <use xlink:href="#m98e3bc2abc" x="142.17173" y="186.212927" style="fill: #2ca02c; stroke: #2ca02c"/>
     <use xlink:href="#m98e3bc2abc" x="378.305096" y="289.796944" style="fill: #2ca02c; stroke: #2ca02c"/>
     <use xlink:href="#m98e3bc2abc" x="269.53256" y="65.467544" style="fill: #2ca02c; stroke: #2ca02c"/>
     <use xlink:href="#m98e3bc2abc" x="147.736897" y="162.848238" style="fill: #2ca02c; stroke: #2ca02c"/>
     <use xlink:href="#m98e3bc2abc" x="371.042463" y="263.545973" style="fill: #2ca02c; stroke: #2ca02c"/>
     <use xlink:href="#m98e3bc2abc" x="244.157889" y="113.891151" style="fill: #2ca02c; stroke: #2ca02c"/>
     <use xlink:href="#m98e3bc2abc" x="292.054496" y="182.423577" style="fill: #2ca02c; stroke: #2ca02c"/>
     <use xlink:href="#m98e3bc2abc" x="139.363652" y="176.843886" style="fill: #2ca02c; stroke: #2ca02c"/>
     <use xlink:href="#m98e3bc2abc" x="194.475948" y="180.084271" style="fill: #2ca02c; stroke: #2ca02c"/>
     <use xlink:href="#m98e3bc2abc" x="192.33959" y="92.674111" style="fill: #2ca02c; stroke: #2ca02c"/>
     <use xlink:href="#m98e3bc2abc" x="324.830056" y="219.703465" style="fill: #2ca02c; stroke: #2ca02c"/>
     <use xlink:href="#m98e3bc2abc" x="260.346853" y="228.903683" style="fill: #2ca02c; stroke: #2ca02c"/>
     <use xlink:href="#m98e3bc2abc" x="220.943388" y="210.251561" style="fill: #2ca02c; stroke: #2ca02c"/>
     <use xlink:href="#m98e3bc2abc" x="288.234042" y="206.039408" style="fill: #2ca02c; stroke: #2ca02c"/>
     <use xlink:href="#m98e3bc2abc" x="222.999395" y="121.428134" style="fill: #2ca02c; stroke: #2ca02c"/>
     <use xlink:href="#m98e3bc2abc" x="207.83402" y="76.064465" style="fill: #2ca02c; stroke: #2ca02c"/>
     <use xlink:href="#m98e3bc2abc" x="131.337891" y="116.143824" style="fill: #2ca02c; stroke: #2ca02c"/>
     <use xlink:href="#m98e3bc2abc" x="210.920381" y="192.436916" style="fill: #2ca02c; stroke: #2ca02c"/>
     <use xlink:href="#m98e3bc2abc" x="280.661546" y="169.051213" style="fill: #2ca02c; stroke: #2ca02c"/>
     <use xlink:href="#m98e3bc2abc" x="208.457117" y="295.488" style="fill: #2ca02c; stroke: #2ca02c"/>
     <use xlink:href="#m98e3bc2abc" x="102.32726" y="123.835675" style="fill: #2ca02c; stroke: #2ca02c"/>
     <use xlink:href="#m98e3bc2abc" x="244.464813" y="127.044346" style="fill: #2ca02c; stroke: #2ca02c"/>
     <use xlink:href="#m98e3bc2abc" x="386.286392" y="130.256091" style="fill: #2ca02c; stroke: #2ca02c"/>
     <use xlink:href="#m98e3bc2abc" x="89.453903" y="220.950181" style="fill: #2ca02c; stroke: #2ca02c"/>
     <use xlink:href="#m98e3bc2abc" x="266.915946" y="238.827155" style="fill: #2ca02c; stroke: #2ca02c"/>
     <use xlink:href="#m98e3bc2abc" x="389.412381" y="66.699539" style="fill: #2ca02c; stroke: #2ca02c"/>
     <use xlink:href="#m98e3bc2abc" x="351.065624" y="181.315269" style="fill: #2ca02c; stroke: #2ca02c"/>
     <use xlink:href="#m98e3bc2abc" x="348.787859" y="264.045146" style="fill: #2ca02c; stroke: #2ca02c"/>
     <use xlink:href="#m98e3bc2abc" x="173.537386" y="183.576819" style="fill: #2ca02c; stroke: #2ca02c"/>
     <use xlink:href="#m98e3bc2abc" x="316.013862" y="178.041788" style="fill: #2ca02c; stroke: #2ca02c"/>
     <use xlink:href="#m98e3bc2abc" x="117.00335" y="212.540809" style="fill: #2ca02c; stroke: #2ca02c"/>
     <use xlink:href="#m98e3bc2abc" x="178.699574" y="222.995018" style="fill: #2ca02c; stroke: #2ca02c"/>
     <use xlink:href="#m98e3bc2abc" x="126.419886" y="195.237741" style="fill: #2ca02c; stroke: #2ca02c"/>
     <use xlink:href="#m98e3bc2abc" x="219.389955" y="107.953231" style="fill: #2ca02c; stroke: #2ca02c"/>
     <use xlink:href="#m98e3bc2abc" x="333.956422" y="169.176339" style="fill: #2ca02c; stroke: #2ca02c"/>
     <use xlink:href="#m98e3bc2abc" x="223.505109" y="107.149914" style="fill: #2ca02c; stroke: #2ca02c"/>
     <use xlink:href="#m98e3bc2abc" x="363.858194" y="132.194563" style="fill: #2ca02c; stroke: #2ca02c"/>
     <use xlink:href="#m98e3bc2abc" x="335.30132" y="68.13898" style="fill: #2ca02c; stroke: #2ca02c"/>
     <use xlink:href="#m98e3bc2abc" x="85.35084" y="83.52042" style="fill: #2ca02c; stroke: #2ca02c"/>
     <use xlink:href="#m98e3bc2abc" x="162.954591" y="180.481091" style="fill: #2ca02c; stroke: #2ca02c"/>
     <use xlink:href="#m98e3bc2abc" x="334.078221" y="121.932904" style="fill: #2ca02c; stroke: #2ca02c"/>
     <use xlink:href="#m98e3bc2abc" x="120.382234" y="136.115231" style="fill: #2ca02c; stroke: #2ca02c"/>
     <use xlink:href="#m98e3bc2abc" x="94.75783" y="209.259359" style="fill: #2ca02c; stroke: #2ca02c"/>
     <use xlink:href="#m98e3bc2abc" x="339.364125" y="192.133538" style="fill: #2ca02c; stroke: #2ca02c"/>
     <use xlink:href="#m98e3bc2abc" x="269.304104" y="119.285494" style="fill: #2ca02c; stroke: #2ca02c"/>
     <use xlink:href="#m98e3bc2abc" x="342.126739" y="111.44105" style="fill: #2ca02c; stroke: #2ca02c"/>
     <use xlink:href="#m98e3bc2abc" x="74.3266" y="193.939364" style="fill: #2ca02c; stroke: #2ca02c"/>
     <use xlink:href="#m98e3bc2abc" x="224.329454" y="282.377665" style="fill: #2ca02c; stroke: #2ca02c"/>
     <use xlink:href="#m98e3bc2abc" x="250.088867" y="148.475131" style="fill: #2ca02c; stroke: #2ca02c"/>
     <use xlink:href="#m98e3bc2abc" x="344.503659" y="67.48485" style="fill: #2ca02c; stroke: #2ca02c"/>
     <use xlink:href="#m98e3bc2abc" x="114.132111" y="239.964218" style="fill: #2ca02c; stroke: #2ca02c"/>
     <use xlink:href="#m98e3bc2abc" x="288.812659" y="263.714592" style="fill: #2ca02c; stroke: #2ca02c"/>
     <use xlink:href="#m98e3bc2abc" x="145.689379" y="156.453976" style="fill: #2ca02c; stroke: #2ca02c"/>
     <use xlink:href="#m98e3bc2abc" x="127.743064" y="106.176069" style="fill: #2ca02c; stroke: #2ca02c"/>
     <use xlink:href="#m98e3bc2abc" x="353.886361" y="287.669381" style="fill: #2ca02c; stroke: #2ca02c"/>
     <use xlink:href="#m98e3bc2abc" x="247.19491" y="102.606796" style="fill: #2ca02c; stroke: #2ca02c"/>
     <use xlink:href="#m98e3bc2abc" x="392.757457" y="229.337793" style="fill: #2ca02c; stroke: #2ca02c"/>
     <use xlink:href="#m98e3bc2abc" x="127.604026" y="83.270881" style="fill: #2ca02c; stroke: #2ca02c"/>
     <use xlink:href="#m98e3bc2abc" x="371.060256" y="247.940547" style="fill: #2ca02c; stroke: #2ca02c"/>
     <use xlink:href="#m98e3bc2abc" x="217.221816" y="121.450435" style="fill: #2ca02c; stroke: #2ca02c"/>
     <use xlink:href="#m98e3bc2abc" x="350.060418" y="255.034279" style="fill: #2ca02c; stroke: #2ca02c"/>
     <use xlink:href="#m98e3bc2abc" x="290.724095" y="99.96786" style="fill: #2ca02c; stroke: #2ca02c"/>
     <use xlink:href="#m98e3bc2abc" x="252.81001" y="255.897101" style="fill: #2ca02c; stroke: #2ca02c"/>
     <use xlink:href="#m98e3bc2abc" x="83.664267" y="227.573857" style="fill: #2ca02c; stroke: #2ca02c"/>
     <use xlink:href="#m98e3bc2abc" x="337.732916" y="284.980024" style="fill: #2ca02c; stroke: #2ca02c"/>
     <use xlink:href="#m98e3bc2abc" x="74.679648" y="208.157141" style="fill: #2ca02c; stroke: #2ca02c"/>
     <use xlink:href="#m98e3bc2abc" x="92.905863" y="259.589821" style="fill: #2ca02c; stroke: #2ca02c"/>
     <use xlink:href="#m98e3bc2abc" x="79.605431" y="168.611482" style="fill: #2ca02c; stroke: #2ca02c"/>
     <use xlink:href="#m98e3bc2abc" x="301.160949" y="192.29146" style="fill: #2ca02c; stroke: #2ca02c"/>
     <use xlink:href="#m98e3bc2abc" x="116.244883" y="215.493781" style="fill: #2ca02c; stroke: #2ca02c"/>
     <use xlink:href="#m98e3bc2abc" x="266.176173" y="67.763161" style="fill: #2ca02c; stroke: #2ca02c"/>
     <use xlink:href="#m98e3bc2abc" x="398.487273" y="237.25542" style="fill: #2ca02c; stroke: #2ca02c"/>
     <use xlink:href="#m98e3bc2abc" x="75.45711" y="94.438639" style="fill: #2ca02c; stroke: #2ca02c"/>
     <use xlink:href="#m98e3bc2abc" x="376.794162" y="184.641916" style="fill: #2ca02c; stroke: #2ca02c"/>
     <use xlink:href="#m98e3bc2abc" x="325.749442" y="85.817149" style="fill: #2ca02c; stroke: #2ca02c"/>
     <use xlink:href="#m98e3bc2abc" x="272.51486" y="84.258594" style="fill: #2ca02c; stroke: #2ca02c"/>
     <use xlink:href="#m98e3bc2abc" x="79.839866" y="229.983548" style="fill: #2ca02c; stroke: #2ca02c"/>
     <use xlink:href="#m98e3bc2abc" x="163.170556" y="266.585672" style="fill: #2ca02c; stroke: #2ca02c"/>
     <use xlink:href="#m98e3bc2abc" x="371.563888" y="288.453717" style="fill: #2ca02c; stroke: #2ca02c"/>
     <use xlink:href="#m98e3bc2abc" x="293.221572" y="278.537087" style="fill: #2ca02c; stroke: #2ca02c"/>
     <use xlink:href="#m98e3bc2abc" x="190.658646" y="194.462416" style="fill: #2ca02c; stroke: #2ca02c"/>
     <use xlink:href="#m98e3bc2abc" x="131.65128" y="169.509967" style="fill: #2ca02c; stroke: #2ca02c"/>
     <use xlink:href="#m98e3bc2abc" x="247.966961" y="218.964161" style="fill: #2ca02c; stroke: #2ca02c"/>
     <use xlink:href="#m98e3bc2abc" x="314.448301" y="256.991616" style="fill: #2ca02c; stroke: #2ca02c"/>
     <use xlink:href="#m98e3bc2abc" x="135.304014" y="209.879957" style="fill: #2ca02c; stroke: #2ca02c"/>
     <use xlink:href="#m98e3bc2abc" x="196.446885" y="245.81832" style="fill: #2ca02c; stroke: #2ca02c"/>
     <use xlink:href="#m98e3bc2abc" x="374.19416" y="95.056121" style="fill: #2ca02c; stroke: #2ca02c"/>
     <use xlink:href="#m98e3bc2abc" x="107.134794" y="206.249175" style="fill: #2ca02c; stroke: #2ca02c"/>
     <use xlink:href="#m98e3bc2abc" x="148.515943" y="186.466382" style="fill: #2ca02c; stroke: #2ca02c"/>
     <use xlink:href="#m98e3bc2abc" x="162.873705" y="174.166907" style="fill: #2ca02c; stroke: #2ca02c"/>
     <use xlink:href="#m98e3bc2abc" x="375.475108" y="203.091106" style="fill: #2ca02c; stroke: #2ca02c"/>
     <use xlink:href="#m98e3bc2abc" x="285.842139" y="151.420907" style="fill: #2ca02c; stroke: #2ca02c"/>
     <use xlink:href="#m98e3bc2abc" x="319.338437" y="280.882711" style="fill: #2ca02c; stroke: #2ca02c"/>
     <use xlink:href="#m98e3bc2abc" x="316.992999" y="66.401873" style="fill: #2ca02c; stroke: #2ca02c"/>
     <use xlink:href="#m98e3bc2abc" x="270.522934" y="226.107926" style="fill: #2ca02c; stroke: #2ca02c"/>
     <use xlink:href="#m98e3bc2abc" x="293.158474" y="123.192096" style="fill: #2ca02c; stroke: #2ca02c"/>
     <use xlink:href="#m98e3bc2abc" x="287.921802" y="260.209541" style="fill: #2ca02c; stroke: #2ca02c"/>
     <use xlink:href="#m98e3bc2abc" x="392.210033" y="64.193682" style="fill: #2ca02c; stroke: #2ca02c"/>
     <use xlink:href="#m98e3bc2abc" x="211.661028" y="151.901891" style="fill: #2ca02c; stroke: #2ca02c"/>
     <use xlink:href="#m98e3bc2abc" x="85.012922" y="56.131742" style="fill: #2ca02c; stroke: #2ca02c"/>
     <use xlink:href="#m98e3bc2abc" x="341.310061" y="141.50893" style="fill: #2ca02c; stroke: #2ca02c"/>
     <use xlink:href="#m98e3bc2abc" x="322.34222" y="250.244615" style="fill: #2ca02c; stroke: #2ca02c"/>
     <use xlink:href="#m98e3bc2abc" x="173.182417" y="236.09387" style="fill: #2ca02c; stroke: #2ca02c"/>
     <use xlink:href="#m98e3bc2abc" x="268.052312" y="273.5509" style="fill: #2ca02c; stroke: #2ca02c"/>
     <use xlink:href="#m98e3bc2abc" x="366.59547" y="183.751499" style="fill: #2ca02c; stroke: #2ca02c"/>
     <use xlink:href="#m98e3bc2abc" x="218.301663" y="270.445874" style="fill: #2ca02c; stroke: #2ca02c"/>
     <use xlink:href="#m98e3bc2abc" x="297.281912" y="97.771546" style="fill: #2ca02c; stroke: #2ca02c"/>
     <use xlink:href="#m98e3bc2abc" x="279.072775" y="237.153662" style="fill: #2ca02c; stroke: #2ca02c"/>
     <use xlink:href="#m98e3bc2abc" x="330.347751" y="260.512827" style="fill: #2ca02c; stroke: #2ca02c"/>
     <use xlink:href="#m98e3bc2abc" x="344.116518" y="155.037347" style="fill: #2ca02c; stroke: #2ca02c"/>
     <use xlink:href="#m98e3bc2abc" x="167.168467" y="171.394035" style="fill: #2ca02c; stroke: #2ca02c"/>
     <use xlink:href="#m98e3bc2abc" x="278.842909" y="233.136889" style="fill: #2ca02c; stroke: #2ca02c"/>
     <use xlink:href="#m98e3bc2abc" x="350.574054" y="193.697664" style="fill: #2ca02c; stroke: #2ca02c"/>
     <use xlink:href="#m98e3bc2abc" x="365.518944" y="93.267996" style="fill: #2ca02c; stroke: #2ca02c"/>
     <use xlink:href="#m98e3bc2abc" x="104.657988" y="139.144536" style="fill: #2ca02c; stroke: #2ca02c"/>
     <use xlink:href="#m98e3bc2abc" x="174.116652" y="113.007795" style="fill: #2ca02c; stroke: #2ca02c"/>
     <use xlink:href="#m98e3bc2abc" x="250.480172" y="184.885491" style="fill: #2ca02c; stroke: #2ca02c"/>
     <use xlink:href="#m98e3bc2abc" x="366.515467" y="281.95238" style="fill: #2ca02c; stroke: #2ca02c"/>
     <use xlink:href="#m98e3bc2abc" x="255.311249" y="216.329318" style="fill: #2ca02c; stroke: #2ca02c"/>
     <use xlink:href="#m98e3bc2abc" x="83.580229" y="113.137432" style="fill: #2ca02c; stroke: #2ca02c"/>
     <use xlink:href="#m98e3bc2abc" x="256.766244" y="79.041347" style="fill: #2ca02c; stroke: #2ca02c"/>
     <use xlink:href="#m98e3bc2abc" x="268.780004" y="214.117331" style="fill: #2ca02c; stroke: #2ca02c"/>
     <use xlink:href="#m98e3bc2abc" x="396.073353" y="267.778171" style="fill: #2ca02c; stroke: #2ca02c"/>
     <use xlink:href="#m98e3bc2abc" x="89.280559" y="118.20398" style="fill: #2ca02c; stroke: #2ca02c"/>
     <use xlink:href="#m98e3bc2abc" x="193.979289" y="208.19389" style="fill: #2ca02c; stroke: #2ca02c"/>
     <use xlink:href="#m98e3bc2abc" x="360.319652" y="216.479024" style="fill: #2ca02c; stroke: #2ca02c"/>
     <use xlink:href="#m98e3bc2abc" x="364.417307" y="139.693978" style="fill: #2ca02c; stroke: #2ca02c"/>
     <use xlink:href="#m98e3bc2abc" x="180.220474" y="281.399795" style="fill: #2ca02c; stroke: #2ca02c"/>
     <use xlink:href="#m98e3bc2abc" x="152.607616" y="61.034516" style="fill: #2ca02c; stroke: #2ca02c"/>
     <use xlink:href="#m98e3bc2abc" x="205.293081" y="257.03258" style="fill: #2ca02c; stroke: #2ca02c"/>
     <use xlink:href="#m98e3bc2abc" x="170.010814" y="77.724693" style="fill: #2ca02c; stroke: #2ca02c"/>
     <use xlink:href="#m98e3bc2abc" x="126.247286" y="107.235631" style="fill: #2ca02c; stroke: #2ca02c"/>
     <use xlink:href="#m98e3bc2abc" x="116.341654" y="62.736446" style="fill: #2ca02c; stroke: #2ca02c"/>
     <use xlink:href="#m98e3bc2abc" x="246.392442" y="285.367066" style="fill: #2ca02c; stroke: #2ca02c"/>
     <use xlink:href="#m98e3bc2abc" x="378.222415" y="208.979341" style="fill: #2ca02c; stroke: #2ca02c"/>
     <use xlink:href="#m98e3bc2abc" x="312.584164" y="168.856807" style="fill: #2ca02c; stroke: #2ca02c"/>
     <use xlink:href="#m98e3bc2abc" x="102.432349" y="270.119062" style="fill: #2ca02c; stroke: #2ca02c"/>
     <use xlink:href="#m98e3bc2abc" x="121.065606" y="256.749741" style="fill: #2ca02c; stroke: #2ca02c"/>
     <use xlink:href="#m98e3bc2abc" x="89.331235" y="284.435245" style="fill: #2ca02c; stroke: #2ca02c"/>
     <use xlink:href="#m98e3bc2abc" x="383.970514" y="273.699542" style="fill: #2ca02c; stroke: #2ca02c"/>
     <use xlink:href="#m98e3bc2abc" x="239.203473" y="267.07122" style="fill: #2ca02c; stroke: #2ca02c"/>
     <use xlink:href="#m98e3bc2abc" x="142.633094" y="110.821097" style="fill: #2ca02c; stroke: #2ca02c"/>
     <use xlink:href="#m98e3bc2abc" x="380.584386" y="181.948399" style="fill: #2ca02c; stroke: #2ca02c"/>
     <use xlink:href="#m98e3bc2abc" x="73.832727" y="53.568" style="fill: #2ca02c; stroke: #2ca02c"/>
     <use xlink:href="#m98e3bc2abc" x="87.692172" y="201.409233" style="fill: #2ca02c; stroke: #2ca02c"/>
     <use xlink:href="#m98e3bc2abc" x="249.304159" y="79.626131" style="fill: #2ca02c; stroke: #2ca02c"/>
     <use xlink:href="#m98e3bc2abc" x="342.746663" y="148.083346" style="fill: #2ca02c; stroke: #2ca02c"/>
     <use xlink:href="#m98e3bc2abc" x="203.100456" y="93.507991" style="fill: #2ca02c; stroke: #2ca02c"/>
     <use xlink:href="#m98e3bc2abc" x="357.86109" y="84.433715" style="fill: #2ca02c; stroke: #2ca02c"/>
     <use xlink:href="#m98e3bc2abc" x="308.04952" y="272.124643" style="fill: #2ca02c; stroke: #2ca02c"/>
     <use xlink:href="#m98e3bc2abc" x="170.197063" y="178.018311" style="fill: #2ca02c; stroke: #2ca02c"/>
     <use xlink:href="#m98e3bc2abc" x="238.118466" y="93.89721" style="fill: #2ca02c; stroke: #2ca02c"/>
     <use xlink:href="#m98e3bc2abc" x="150.215238" y="134.698672" style="fill: #2ca02c; stroke: #2ca02c"/>
     <use xlink:href="#m98e3bc2abc" x="195.073076" y="107.812078" style="fill: #2ca02c; stroke: #2ca02c"/>
     <use xlink:href="#m98e3bc2abc" x="136.37843" y="180.2719" style="fill: #2ca02c; stroke: #2ca02c"/>
     <use xlink:href="#m98e3bc2abc" x="106.043255" y="244.435263" style="fill: #2ca02c; stroke: #2ca02c"/>
     <use xlink:href="#m98e3bc2abc" x="379.610624" y="219.205836" style="fill: #2ca02c; stroke: #2ca02c"/>
     <use xlink:href="#m98e3bc2abc" x="365.729328" y="168.712527" style="fill: #2ca02c; stroke: #2ca02c"/>
     <use xlink:href="#m98e3bc2abc" x="84.817053" y="103.569275" style="fill: #2ca02c; stroke: #2ca02c"/>
     <use xlink:href="#m98e3bc2abc" x="89.068431" y="95.334957" style="fill: #2ca02c; stroke: #2ca02c"/>
     <use xlink:href="#m98e3bc2abc" x="74.871302" y="132.390334" style="fill: #2ca02c; stroke: #2ca02c"/>
     <use xlink:href="#m98e3bc2abc" x="126.489798" y="212.701144" style="fill: #2ca02c; stroke: #2ca02c"/>
     <use xlink:href="#m98e3bc2abc" x="385.392635" y="177.942806" style="fill: #2ca02c; stroke: #2ca02c"/>
     <use xlink:href="#m98e3bc2abc" x="288.242899" y="116.236874" style="fill: #2ca02c; stroke: #2ca02c"/>
     <use xlink:href="#m98e3bc2abc" x="108.138524" y="92.46129" style="fill: #2ca02c; stroke: #2ca02c"/>
     <use xlink:href="#m98e3bc2abc" x="372.618689" y="258.150992" style="fill: #2ca02c; stroke: #2ca02c"/>
     <use xlink:href="#m98e3bc2abc" x="251.666651" y="227.095898" style="fill: #2ca02c; stroke: #2ca02c"/>
     <use xlink:href="#m98e3bc2abc" x="315.618957" y="288.979578" style="fill: #2ca02c; stroke: #2ca02c"/>
     <use xlink:href="#m98e3bc2abc" x="240.583563" y="103.609724" style="fill: #2ca02c; stroke: #2ca02c"/>
     <use xlink:href="#m98e3bc2abc" x="313.674869" y="269.603933" style="fill: #2ca02c; stroke: #2ca02c"/>
     <use xlink:href="#m98e3bc2abc" x="345.979668" y="238.167592" style="fill: #2ca02c; stroke: #2ca02c"/>
     <use xlink:href="#m98e3bc2abc" x="337.705541" y="175.30114" style="fill: #2ca02c; stroke: #2ca02c"/>
     <use xlink:href="#m98e3bc2abc" x="124.881795" y="117.859988" style="fill: #2ca02c; stroke: #2ca02c"/>
     <use xlink:href="#m98e3bc2abc" x="337.746767" y="126.379845" style="fill: #2ca02c; stroke: #2ca02c"/>
     <use xlink:href="#m98e3bc2abc" x="389.371373" y="233.72971" style="fill: #2ca02c; stroke: #2ca02c"/>
     <use xlink:href="#m98e3bc2abc" x="149.53283" y="260.136858" style="fill: #2ca02c; stroke: #2ca02c"/>
     <use xlink:href="#m98e3bc2abc" x="249.419133" y="198.984431" style="fill: #2ca02c; stroke: #2ca02c"/>
     <use xlink:href="#m98e3bc2abc" x="189.303848" y="184.229466" style="fill: #2ca02c; stroke: #2ca02c"/>
     <use xlink:href="#m98e3bc2abc" x="162.289817" y="294.800996" style="fill: #2ca02c; stroke: #2ca02c"/>
     <use xlink:href="#m98e3bc2abc" x="227.163259" y="228.943575" style="fill: #2ca02c; stroke: #2ca02c"/>
     <use xlink:href="#m98e3bc2abc" x="219.936997" y="70.620838" style="fill: #2ca02c; stroke: #2ca02c"/>
     <use xlink:href="#m98e3bc2abc" x="130.862147" y="141.271021" style="fill: #2ca02c; stroke: #2ca02c"/>
     <use xlink:href="#m98e3bc2abc" x="283.962656" y="227.632201" style="fill: #2ca02c; stroke: #2ca02c"/>
     <use xlink:href="#m98e3bc2abc" x="226.879469" y="60.743944" style="fill: #2ca02c; stroke: #2ca02c"/>
     <use xlink:href="#m98e3bc2abc" x="184.632001" y="123.120233" style="fill: #2ca02c; stroke: #2ca02c"/>
     <use xlink:href="#m98e3bc2abc" x="348.374174" y="208.381546" style="fill: #2ca02c; stroke: #2ca02c"/>
     <use xlink:href="#m98e3bc2abc" x="397.617642" y="144.087009" style="fill: #2ca02c; stroke: #2ca02c"/>
     <use xlink:href="#m98e3bc2abc" x="236.78023" y="122.498974" style="fill: #2ca02c; stroke: #2ca02c"/>
     <use xlink:href="#m98e3bc2abc" x="211.399309" y="123.124709" style="fill: #2ca02c; stroke: #2ca02c"/>
     <use xlink:href="#m98e3bc2abc" x="162.375397" y="71.024967" style="fill: #2ca02c; stroke: #2ca02c"/>
     <use xlink:href="#m98e3bc2abc" x="250.260158" y="237.244127" style="fill: #2ca02c; stroke: #2ca02c"/>
     <use xlink:href="#m98e3bc2abc" x="215.796413" y="78.81072" style="fill: #2ca02c; stroke: #2ca02c"/>
     <use xlink:href="#m98e3bc2abc" x="337.464641" y="178.370628" style="fill: #2ca02c; stroke: #2ca02c"/>
     <use xlink:href="#m98e3bc2abc" x="187.67209" y="204.609796" style="fill: #2ca02c; stroke: #2ca02c"/>
     <use xlink:href="#m98e3bc2abc" x="394.749525" y="268.627081" style="fill: #2ca02c; stroke: #2ca02c"/>
     <use xlink:href="#m98e3bc2abc" x="364.428919" y="87.899902" style="fill: #2ca02c; stroke: #2ca02c"/>
     <use xlink:href="#m98e3bc2abc" x="145.79128" y="211.129169" style="fill: #2ca02c; stroke: #2ca02c"/>
     <use xlink:href="#m98e3bc2abc" x="259.338448" y="101.287499" style="fill: #2ca02c; stroke: #2ca02c"/>
     <use xlink:href="#m98e3bc2abc" x="384.63406" y="55.362091" style="fill: #2ca02c; stroke: #2ca02c"/>
     <use xlink:href="#m98e3bc2abc" x="164.490379" y="249.193888" style="fill: #2ca02c; stroke: #2ca02c"/>
     <use xlink:href="#m98e3bc2abc" x="232.418199" y="160.648179" style="fill: #2ca02c; stroke: #2ca02c"/>
     <use xlink:href="#m98e3bc2abc" x="288.005487" y="269.747637" style="fill: #2ca02c; stroke: #2ca02c"/>
     <use xlink:href="#m98e3bc2abc" x="284.601205" y="72.43831" style="fill: #2ca02c; stroke: #2ca02c"/>
     <use xlink:href="#m98e3bc2abc" x="373.040128" y="67.008485" style="fill: #2ca02c; stroke: #2ca02c"/>
     <use xlink:href="#m98e3bc2abc" x="375.388409" y="62.885772" style="fill: #2ca02c; stroke: #2ca02c"/>
     <use xlink:href="#m98e3bc2abc" x="87.994592" y="73.738101" style="fill: #2ca02c; stroke: #2ca02c"/>
     <use xlink:href="#m98e3bc2abc" x="161.194575" y="218.086014" style="fill: #2ca02c; stroke: #2ca02c"/>
     <use xlink:href="#m98e3bc2abc" x="222.84191" y="64.218668" style="fill: #2ca02c; stroke: #2ca02c"/>
     <use xlink:href="#m98e3bc2abc" x="271.026027" y="210.320698" style="fill: #2ca02c; stroke: #2ca02c"/>
     <use xlink:href="#m98e3bc2abc" x="195.059178" y="76.426887" style="fill: #2ca02c; stroke: #2ca02c"/>
     <use xlink:href="#m98e3bc2abc" x="342.49516" y="262.48685" style="fill: #2ca02c; stroke: #2ca02c"/>
     <use xlink:href="#m98e3bc2abc" x="153.782825" y="205.652902" style="fill: #2ca02c; stroke: #2ca02c"/>
     <use xlink:href="#m98e3bc2abc" x="143.275925" y="159.213349" style="fill: #2ca02c; stroke: #2ca02c"/>
     <use xlink:href="#m98e3bc2abc" x="145.544677" y="156.438965" style="fill: #2ca02c; stroke: #2ca02c"/>
     <use xlink:href="#m98e3bc2abc" x="379.890217" y="90.065753" style="fill: #2ca02c; stroke: #2ca02c"/>
     <use xlink:href="#m98e3bc2abc" x="104.630339" y="245.668253" style="fill: #2ca02c; stroke: #2ca02c"/>
     <use xlink:href="#m98e3bc2abc" x="207.754219" y="139.175215" style="fill: #2ca02c; stroke: #2ca02c"/>
     <use xlink:href="#m98e3bc2abc" x="199.141133" y="234.828549" style="fill: #2ca02c; stroke: #2ca02c"/>
     <use xlink:href="#m98e3bc2abc" x="185.355353" y="246.36925" style="fill: #2ca02c; stroke: #2ca02c"/>
     <use xlink:href="#m98e3bc2abc" x="355.495329" y="126.779764" style="fill: #2ca02c; stroke: #2ca02c"/>
     <use xlink:href="#m98e3bc2abc" x="207.188364" y="126.008817" style="fill: #2ca02c; stroke: #2ca02c"/>
     <use xlink:href="#m98e3bc2abc" x="242.946248" y="168.237522" style="fill: #2ca02c; stroke: #2ca02c"/>
     <use xlink:href="#m98e3bc2abc" x="192.821588" y="177.461555" style="fill: #2ca02c; stroke: #2ca02c"/>
     <use xlink:href="#m98e3bc2abc" x="396.170917" y="105.634245" style="fill: #2ca02c; stroke: #2ca02c"/>
     <use xlink:href="#m98e3bc2abc" x="344.255985" y="265.679019" style="fill: #2ca02c; stroke: #2ca02c"/>
     <use xlink:href="#m98e3bc2abc" x="237.862081" y="206.875923" style="fill: #2ca02c; stroke: #2ca02c"/>
     <use xlink:href="#m98e3bc2abc" x="101.223481" y="199.995916" style="fill: #2ca02c; stroke: #2ca02c"/>
     <use xlink:href="#m98e3bc2abc" x="96.38144" y="239.094027" style="fill: #2ca02c; stroke: #2ca02c"/>
     <use xlink:href="#m98e3bc2abc" x="334.736715" y="129.455102" style="fill: #2ca02c; stroke: #2ca02c"/>
     <use xlink:href="#m98e3bc2abc" x="301.769764" y="276.593013" style="fill: #2ca02c; stroke: #2ca02c"/>
     <use xlink:href="#m98e3bc2abc" x="125.920157" y="290.600712" style="fill: #2ca02c; stroke: #2ca02c"/>
     <use xlink:href="#m98e3bc2abc" x="104.055011" y="271.292659" style="fill: #2ca02c; stroke: #2ca02c"/>
     <use xlink:href="#m98e3bc2abc" x="387.824725" y="79.088402" style="fill: #2ca02c; stroke: #2ca02c"/>
     <use xlink:href="#m98e3bc2abc" x="139.167884" y="234.294999" style="fill: #2ca02c; stroke: #2ca02c"/>
     <use xlink:href="#m98e3bc2abc" x="388.065903" y="157.633519" style="fill: #2ca02c; stroke: #2ca02c"/>
     <use xlink:href="#m98e3bc2abc" x="193.205707" y="182.716604" style="fill: #2ca02c; stroke: #2ca02c"/>
     <use xlink:href="#m98e3bc2abc" x="161.522593" y="154.34103" style="fill: #2ca02c; stroke: #2ca02c"/>
     <use xlink:href="#m98e3bc2abc" x="310.561247" y="170.859451" style="fill: #2ca02c; stroke: #2ca02c"/>
     <use xlink:href="#m98e3bc2abc" x="341.942103" y="268.385169" style="fill: #2ca02c; stroke: #2ca02c"/>
     <use xlink:href="#m98e3bc2abc" x="270.553666" y="55.897052" style="fill: #2ca02c; stroke: #2ca02c"/>
     <use xlink:href="#m98e3bc2abc" x="121.017611" y="175.808547" style="fill: #2ca02c; stroke: #2ca02c"/>
     <use xlink:href="#m98e3bc2abc" x="279.268543" y="213.99728" style="fill: #2ca02c; stroke: #2ca02c"/>
     <use xlink:href="#m98e3bc2abc" x="389.296035" y="178.142365" style="fill: #2ca02c; stroke: #2ca02c"/>
     <use xlink:href="#m98e3bc2abc" x="229.448864" y="76.976001" style="fill: #2ca02c; stroke: #2ca02c"/>
     <use xlink:href="#m98e3bc2abc" x="77.210626" y="85.165877" style="fill: #2ca02c; stroke: #2ca02c"/>
     <use xlink:href="#m98e3bc2abc" x="114.436578" y="203.901575" style="fill: #2ca02c; stroke: #2ca02c"/>
     <use xlink:href="#m98e3bc2abc" x="232.658673" y="180.288532" style="fill: #2ca02c; stroke: #2ca02c"/>
     <use xlink:href="#m98e3bc2abc" x="84.940546" y="218.948826" style="fill: #2ca02c; stroke: #2ca02c"/>
    </g>
   </g>
   <g id="line2d_4">
    <defs>
     <path id="m4dc73ffefb" d="M 0 3 
C 0.795609 3 1.55874 2.683901 2.12132 2.12132 
C 2.683901 1.55874 3 0.795609 3 0 
C 3 -0.795609 2.683901 -1.55874 2.12132 -2.12132 
C 1.55874 -2.683901 0.795609 -3 0 -3 
C -0.795609 -3 -1.55874 -2.683901 -2.12132 -2.12132 
C -2.683901 -1.55874 -3 -0.795609 -3 0 
C -3 0.795609 -2.683901 1.55874 -2.12132 2.12132 
C -1.55874 2.683901 -0.795609 3 0 3 
z
" style="stroke: #ff0000"/>
    </defs>
    <g clip-path="url(#pb866b38579)">
     <use xlink:href="#m4dc73ffefb" x="89.068431" y="95.334957" style="fill: #ff0000; stroke: #ff0000"/>
     <use xlink:href="#m4dc73ffefb" x="301.769764" y="276.593013" style="fill: #ff0000; stroke: #ff0000"/>
    </g>
   </g>
   <g id="line2d_5">
    <path d="M 89.068431 95.334957 
L 97.079034 106.736477 
L 124.881795 117.859988 
L 120.382234 136.115231 
L 130.862147 141.271021 
L 131.65128 169.509967 
L 136.37843 180.2719 
L 142.17173 186.212927 
L 153.782825 205.652902 
L 187.67209 204.609796 
L 193.979289 208.19389 
L 199.141133 234.828549 
L 227.163259 228.943575 
L 250.260158 237.244127 
L 252.81001 255.897101 
L 287.921802 260.209541 
L 288.812659 263.714592 
L 308.04952 272.124643 
L 301.769764 276.593013 
" clip-path="url(#pb866b38579)" style="fill: none; stroke: #ff0000; stroke-width: 4; stroke-linecap: square"/>
   </g>
   <g id="line2d_6">
    <path d="M 162.873705 174.166907 
L 316.013862 178.041788 
" clip-path="url(#pb866b38579)" style="fill: none; stroke: #bfbf00; stroke-width: 1.5; stroke-linecap: square"/>
   </g>
   <g id="line2d_7">
    <path d="M 74.3266 193.939364 
L 190.658646 194.462416 
" clip-path="url(#pb866b38579)" style="fill: none; stroke: #bfbf00; stroke-width: 1.5; stroke-linecap: square"/>
   </g>
   <g id="line2d_8">
    <path d="M 342.746663 148.083346 
L 375.388409 62.885772 
" clip-path="url(#pb866b38579)" style="fill: none; stroke: #bfbf00; stroke-width: 1.5; stroke-linecap: square"/>
   </g>
   <g id="line2d_9">
    <path d="M 150.215238 134.698672 
L 84.817053 103.569275 
" clip-path="url(#pb866b38579)" style="fill: none; stroke: #bfbf00; stroke-width: 1.5; stroke-linecap: square"/>
   </g>
   <g id="line2d_10">
    <path d="M 365.518944 93.267996 
L 339.364125 192.133538 
" clip-path="url(#pb866b38579)" style="fill: none; stroke: #bfbf00; stroke-width: 1.5; stroke-linecap: square"/>
   </g>
   <g id="line2d_11">
    <path d="M 143.275925 159.213349 
L 325.749442 85.817149 
" clip-path="url(#pb866b38579)" style="fill: none; stroke: #bfbf00; stroke-width: 1.5; stroke-linecap: square"/>
   </g>
   <g id="line2d_12">
    <path d="M 366.59547 183.751499 
L 268.780004 214.117331 
" clip-path="url(#pb866b38579)" style="fill: none; stroke: #bfbf00; stroke-width: 1.5; stroke-linecap: square"/>
   </g>
   <g id="line2d_13">
    <path d="M 108.138524 92.46129 
L 92.905863 259.589821 
" clip-path="url(#pb866b38579)" style="fill: none; stroke: #bfbf00; stroke-width: 1.5; stroke-linecap: square"/>
   </g>
   <g id="line2d_14">
    <path d="M 84.940546 218.948826 
L 394.749525 268.627081 
" clip-path="url(#pb866b38579)" style="fill: none; stroke: #bfbf00; stroke-width: 1.5; stroke-linecap: square"/>
   </g>
   <g id="line2d_15">
    <path d="M 334.078221 121.932904 
L 287.921802 260.209541 
" clip-path="url(#pb866b38579)" style="fill: none; stroke: #bfbf00; stroke-width: 1.5; stroke-linecap: square"/>
   </g>
   <g id="line2d_16">
    <path d="M 393.694934 165.271374 
L 89.453903 220.950181 
" clip-path="url(#pb866b38579)" style="fill: none; stroke: #bfbf00; stroke-width: 1.5; stroke-linecap: square"/>
   </g>
   <g id="line2d_17">
    <path d="M 396.170917 105.634245 
L 238.118466 93.89721 
" clip-path="url(#pb866b38579)" style="fill: none; stroke: #bfbf00; stroke-width: 1.5; stroke-linecap: square"/>
   </g>
   <g id="line2d_18">
    <path d="M 313.674869 269.603933 
L 139.363652 176.843886 
" clip-path="url(#pb866b38579)" style="fill: none; stroke: #bfbf00; stroke-width: 1.5; stroke-linecap: square"/>
   </g>
   <g id="line2d_19">
    <path d="M 372.618689 258.150992 
L 279.268543 213.99728 
" clip-path="url(#pb866b38579)" style="fill: none; stroke: #bfbf00; stroke-width: 1.5; stroke-linecap: square"/>
   </g>
   <g id="line2d_20">
    <path d="M 364.417307 139.693978 
L 279.268543 213.99728 
" clip-path="url(#pb866b38579)" style="fill: none; stroke: #bfbf00; stroke-width: 1.5; stroke-linecap: square"/>
   </g>
   <g id="line2d_21">
    <path d="M 79.839866 229.983548 
L 380.584386 181.948399 
" clip-path="url(#pb866b38579)" style="fill: none; stroke: #bfbf00; stroke-width: 1.5; stroke-linecap: square"/>
   </g>
   <g id="line2d_22">
    <path d="M 152.607616 61.034516 
L 121.065606 256.749741 
" clip-path="url(#pb866b38579)" style="fill: none; stroke: #bfbf00; stroke-width: 1.5; stroke-linecap: square"/>
   </g>
   <g id="line2d_23">
    <path d="M 89.453903 220.950181 
L 215.796413 78.81072 
" clip-path="url(#pb866b38579)" style="fill: none; stroke: #bfbf00; stroke-width: 1.5; stroke-linecap: square"/>
   </g>
   <g id="line2d_24">
    <path d="M 333.956422 169.176339 
L 74.679648 208.157141 
" clip-path="url(#pb866b38579)" style="fill: none; stroke: #bfbf00; stroke-width: 1.5; stroke-linecap: square"/>
   </g>
   <g id="line2d_25">
    <path d="M 314.448301 256.991616 
L 316.992999 66.401873 
" clip-path="url(#pb866b38579)" style="fill: none; stroke: #bfbf00; stroke-width: 1.5; stroke-linecap: square"/>
   </g>
   <g id="line2d_26">
    <path d="M 114.436578 203.901575 
L 238.118466 93.89721 
" clip-path="url(#pb866b38579)" style="fill: none; stroke: #bfbf00; stroke-width: 1.5; stroke-linecap: square"/>
   </g>
   <g id="line2d_27">
    <path d="M 114.132111 239.964218 
L 337.732916 284.980024 
" clip-path="url(#pb866b38579)" style="fill: none; stroke: #bfbf00; stroke-width: 1.5; stroke-linecap: square"/>
   </g>
   <g id="line2d_28">
    <path d="M 84.817053 103.569275 
L 313.674869 269.603933 
" clip-path="url(#pb866b38579)" style="fill: none; stroke: #bfbf00; stroke-width: 1.5; stroke-linecap: square"/>
   </g>
   <g id="line2d_29">
    <path d="M 125.920157 290.600712 
L 256.766244 79.041347 
" clip-path="url(#pb866b38579)" style="fill: none; stroke: #bfbf00; stroke-width: 1.5; stroke-linecap: square"/>
   </g>
   <g id="line2d_30">
    <path d="M 89.453903 220.950181 
L 207.83402 76.064465 
" clip-path="url(#pb866b38579)" style="fill: none; stroke: #bfbf00; stroke-width: 1.5; stroke-linecap: square"/>
   </g>
   <g id="line2d_31">
    <path d="M 148.515943 186.466382 
L 166.764764 75.295811 
" clip-path="url(#pb866b38579)" style="fill: none; stroke: #bfbf00; stroke-width: 1.5; stroke-linecap: square"/>
   </g>
   <g id="line2d_32">
    <path d="M 97.079034 106.736477 
L 288.812659 263.714592 
" clip-path="url(#pb866b38579)" style="fill: none; stroke: #bfbf00; stroke-width: 1.5; stroke-linecap: square"/>
   </g>
   <g id="line2d_33">
    <path d="M 170.197063 178.018311 
L 153.782825 205.652902 
" clip-path="url(#pb866b38579)" style="fill: none; stroke: #bfbf00; stroke-width: 1.5; stroke-linecap: square"/>
   </g>
   <g id="line2d_34">
    <path d="M 355.495329 126.779764 
L 389.296035 178.142365 
" clip-path="url(#pb866b38579)" style="fill: none; stroke: #bfbf00; stroke-width: 1.5; stroke-linecap: square"/>
   </g>
   <g id="line2d_35">
    <path d="M 240.583563 103.609724 
L 239.203473 267.07122 
" clip-path="url(#pb866b38579)" style="fill: none; stroke: #bfbf00; stroke-width: 1.5; stroke-linecap: square"/>
   </g>
   <g id="line2d_36">
    <path d="M 184.632001 123.120233 
L 288.812659 263.714592 
" clip-path="url(#pb866b38579)" style="fill: none; stroke: #bfbf00; stroke-width: 1.5; stroke-linecap: square"/>
   </g>
   <g id="line2d_37">
    <path d="M 344.255985 265.679019 
L 341.942103 268.385169 
" clip-path="url(#pb866b38579)" style="fill: none; stroke: #bfbf00; stroke-width: 1.5; stroke-linecap: square"/>
   </g>
   <g id="line2d_38">
    <path d="M 89.068431 95.334957 
L 97.079034 106.736477 
L 288.812659 263.714592 
L 308.04952 272.124643 
L 301.769764 276.593013 
" clip-path="url(#pb866b38579)" style="fill: none; stroke: #000000; stroke-width: 4; stroke-linecap: square"/>
   </g>
  </g>
 </g>
 <defs>
  <clipPath id="pb866b38579">
   <rect x="57.6" y="41.472" width="357.12" height="266.112"/>
  </clipPath>
 </defs>
</svg>
